<?xml version="1.0" encoding="iso-8859-1"?>
<!-- Generator: Adobe Illustrator 16.0.5, SVG Export Plug-In . SVG Version: 6.00 Build 0)  -->
<!DOCTYPE svg PUBLIC "-//W3C//DTD SVG 1.1//EN" "http://www.w3.org/Graphics/SVG/1.1/DTD/svg11.dtd">
<svg version="1.1" xmlns="http://www.w3.org/2000/svg" xmlns:xlink="http://www.w3.org/1999/xlink" x="0px" y="0px" width="1000px"
	 height="1000px" viewBox="0 0 1000 1000" style="enable-background:new 0 0 1000 1000;" xml:space="preserve">
<g id="Layer_1_1_">
	<g>
		<path d="M994.767,396.877c4.396-8.784,5.202-17.439,5.233-17.804l-3.281-0.42c-0.122,0.709-3.264,17.381-27.061,17.381
			c-10.049,0-31.883-31.245-55-64.326c-33.511-47.958-71.496-102.314-98.949-102.314c-34.421,0-115.551,70.445-157.629,109.25
			c0.754-38.691-7.271-81.152-25.945-124.802C580.404,92.926,474.021,22.478,394.525,56.489
			C315.029,90.5,292.52,216.091,344.252,337.007c8.89,20.779,21.358,39.314,35.982,55.723
			c-90.489-41.887-155.749-63.132-193.965-63.132c-11.538,0-20.669,2.01-27.142,5.97c-32.954,20.162-43.271,67.296-53.247,112.876
			c-8.686,39.676-16.887,77.147-39.432,90.944c-11.207,6.855-25.055,10.332-41.16,10.332c-13.724,0.002-24.059-2.65-24.161-2.677
			L0,550.142c0.928,0.439,12.767,6.004,28.046,11.267c-1.584,5.436-1.69,10.781-0.363,15.185c1.449,4.825,4.618,8.524,9.071,9.744
			c4.438,1.234,9.224-0.263,13.024-3.7c3.476-3.111,6.063-7.835,7.333-13.355c5.731,1.035,11.354,1.67,16.568,1.67
			c5.472,0,10.178-0.723,14.082-2.129c1.029,2.452,2.334,4.675,4.11,6.479c2.145,2.241,4.854,3.596,8.126,4.193
			c2.706,0.507,5.747,0.411,8.52-0.432c1.325-0.421,2.64-1.009,3.9-1.757c0.617-0.372,1.282-0.785,1.813-1.229
			c0.53-0.445,1.04-0.924,1.526-1.438c1.008-1.062,1.871-2.223,2.564-3.432c0.585-1.198,1.018-2.448,1.294-3.722
			c0.262-1.271,0.432-2.567,0.332-3.848c-0.102-1.281-0.349-2.559-0.736-3.812c-1.362-4.575-4.804-8.755-9.438-12.031
			c4.897-7.694,9.429-16.921,13.711-27.075c5.323,1.955,10.647,2.428,15.143,1.447c4.895-1.061,8.772-3.84,10.281-7.891
			c2.944-7.797-3.746-17.147-14.769-21.587c3.148-8.978,6.209-18.202,9.249-27.36c0.133-0.397,0.266-0.79,0.396-1.188
			c11.446,3.217,22.373,0.016,24.864-7.358c2.479-7.369-4.274-16.389-15.272-20.906c3.556-10.045,7.158-19.479,10.912-27.924
			c5.287,2.064,10.594,2.737,14.966,2.267c4.825-0.482,8.529-2.305,10.178-5.238c0.782-1.526,1.053-3.014,0.831-4.817
			c-0.054-0.444-0.139-0.902-0.249-1.371c-0.021-0.291-0.221-0.294-0.332-0.459l-0.406-0.411c-0.556-0.575-1.163-1.271-1.804-2.085
			c-1.39-1.696-2.852-3.913-4.401-6.417c-1.326-2.102-2.681-4.339-4.277-6.538c3.162-2.765,8.229-4.181,15.162-4.181
			c3.762,0,7.996,0.427,12.601,1.193c-0.66,5.639-0.042,10.889,1.334,15.028c1.541,4.545,4.039,7.73,7.599,8.695
			c3.543,0.936,7.54-0.522,11.232-3.703c3.352-2.889,6.435-7.256,8.466-12.535c8.799,2.919,18.238,6.48,28.094,10.517
			c-3.931,11.193-1.727,22.212,5.259,25.241c6.988,3.054,16.606-2.826,22.07-13.354c8.934,4.085,18.029,8.415,27.161,12.901
			c-4.691,10.893-3.116,22.071,3.806,25.566c6.924,3.492,16.87-1.87,22.834-12.12c9.468,4.896,18.824,9.848,27.925,14.754
			c-2.262,5.029-3.129,10.132-2.692,14.493c-0.891,0-1.779-0.004-2.67-0.004c-52.198,0-106.688,2.235-151.55,18.448
			c-34.562,12.096-63.247,55.548-85.256,129.146c-17.71,59.217-23.945,114.915-24.004,115.461
			c-1.467,13.814-16.359,23.363-26.216,29.683c-2.665,1.711-4.968,3.19-6.684,4.523c-0.478,0.372-1.747,1.365-1.276,2.743
			c0.135,0.385,0.602,1.284,2.069,1.284c2.498,0,14.698-4.347,27.562-10.719c2.677,4.459,6.174,7.921,10.009,9.884
			c4.509,2.324,9.48,2.556,13.619,0.052c4.13-2.492,6.563-7.269,6.673-12.563c0.13-4.562-1.573-9.336-4.698-13.583
			c3.835-3.432,6.632-6.924,7.669-10.306c1.287-4.201,2.324-10.511,3.491-18.372c11.743,1.154,21.85-4.023,22.981-11.6
			c1.118-7.528-6.945-15.108-18.415-17.784c1.62-9.158,3.639-19.024,6.298-29.22c5.434,1.073,10.648,0.821,14.812-0.411
			c4.625-1.417,8.093-3.962,9.185-7.575c1.103-3.611-0.163-7.583-3.277-11.399c-2.685-3.33-6.736-6.497-11.747-8.743
			c3.497-9.075,7.655-18.124,12.619-26.896c4.891,2.326,9.826,3.346,14.051,3.341c4.912,0.039,8.669-1.42,10.682-4.337
			c2.075-2.859,1.699-7.073,0.022-11.443c-1.531-3.827-4.305-8.01-8.187-11.678c6.161-7.401,13.153-14.351,21.1-20.653
			c3.59,3.838,7.628,6.541,11.396,8.15c4.489,1.947,8.441,2.195,11.311,0.278c2.987-1.745,4.313-5.603,4.433-10.437
			c0.141-3.986-0.676-8.783-2.656-13.588c8.384-4.217,17.553-7.821,27.585-10.691c1.83,4.783,4.502,8.84,7.386,11.713
			c1.725,1.711,3.528,2.993,5.329,3.74c0.9,0.372,1.802,0.611,2.693,0.701c0.886,0.07,1.783,0.039,2.693-0.094
			c3.598-0.613,6.393-3.711,8.244-8.248c1.539-3.805,2.464-8.486,2.223-13.601c10.221-1.37,20.194-2.348,29.819-2.897
			c0.729,5.076,2.476,9.57,4.785,12.91c2.773,3.977,6.302,6.541,10.135,6.425c3.837-0.13,7.26-2.51,9.923-6.664
			c2.207-3.45,3.842-7.954,4.469-13.011c10.736,0.393,20.611,1.368,29.693,2.812c-0.07,0.969-0.099,1.921-0.093,2.859
			c-4.909,9.311-9.108,20.588-12.229,34.406c-9.671,41.788-19.763,102.259-29.524,160.738
			c-9.435,56.532-19.19,114.985-28.527,156.312c-7.408,32.012-23.477,48.239-47.76,48.239c-13.703-0.003-26.803-4.958-35.473-8.239
			c-4.272-1.616-7.094-2.683-8.771-2.683c-0.324,0-0.611,0.034-0.881,0.109c-1.016,0.283-1.624,1.225-1.48,2.285
			c0.403,2.948,10.321,11.628,24.292,19.864c-2.678,5.015-3.822,10.3-3.208,14.986c0.65,5.111,3.404,9.486,7.897,11.577
			c4.487,2.103,9.742,1.453,14.14-1.354c4.063-2.556,7.338-6.918,9.337-12.266c8.271,2.704,16.74,4.433,24.771,4.43
			c2.183,0,4.279-0.15,6.33-0.382c0.912,5.6,3.358,10.523,7.55,13.521c2.27,1.644,5.022,2.69,8.019,2.92
			c2.986,0.233,6.214-0.361,9.209-1.867c2.992-1.505,5.42-3.762,7.037-6.332c1.625-2.571,2.441-5.444,2.478-8.268
			c0.075-5.191-2.456-10.042-6.46-14.032c5.108-5.686,9.236-13.035,12.354-22.046c0.637-1.939,1.275-3.899,1.913-5.875
			c11.423,3.182,22.339-0.314,24.845-8.218c2.526-7.921-4.424-17.087-15.63-21.108c2.98-9.726,5.96-19.644,8.926-29.629
			c11.555,2.834,22.417-0.889,24.718-8.709c2.301-7.819-4.81-16.846-16.037-20.742c0.703-2.402,1.406-4.802,2.108-7.193
			c2.189-7.477,4.392-14.987,6.601-22.484c11.558,2.823,22.411-0.902,24.727-8.657c2.333-7.733-4.757-16.778-15.979-20.758
			c3.018-10.02,6.043-19.903,9.075-29.548c11.524,3.049,22.481-0.38,24.905-8.033c0.637-1.999,0.621-4.112,0.089-6.197
			c-0.516-2.069-1.577-4.139-3.097-6.091c-2.785-3.583-7.115-6.772-12.429-8.847c3.441-10.217,6.883-19.966,10.315-29.099
			c11.374,3.682,22.552,0.98,25.391-6.366c1.516-4.061,0.369-7.689-2.419-11.797c-2.474-3.502-6.35-7.193-11.28-10.012
			c5.104-10.006,11.17-17.992,17.847-24.4c4.109,3.865,8.751,6.541,12.706,8.027c0.299,0.115,0.585,0.2,0.879,0.302
			c-3.195,30.785-6.262,65.132-1.391,99.694c5.35,37.966,15.831,75.58,24.253,105.801c9.478,34.004,17.66,63.369,9.856,66.065
			c-7.2,2.488-15.127,3.751-23.558,3.751c-19.162-0.002-34.744-6.562-34.899-6.624l-5.289-2.262l3.279,4.727
			c0.407,0.588,7.117,9.876,25.872,16.103c-1.52,5.379-1.52,10.733,0.166,15.036c0.917,2.387,2.339,4.602,4.13,6.18
			c1.782,1.564,3.952,2.67,6.357,3.161c2.397,0.447,4.752,0.064,6.941-0.777c2.188-0.86,4.187-2.27,5.849-4.259
			c3.046-3.535,5.02-8.472,5.664-14.069c3.172,0.198,6.491,0.315,10.006,0.315c4.193,0,8.576-0.156,13.023-0.461
			c2.637-0.179,4.964-0.948,6.96-2.277c1.605,2.108,3.427,3.96,5.525,5.299c2.445,1.557,5.289,2.438,8.19,2.29
			c2.936-0.099,5.906-1.237,8.447-3.393c2.539-2.145,4.659-5.321,5.731-9.18c1.096-3.879,1.163-7.775,0.433-11.423
			c-0.086-0.515-0.212-0.754-0.339-1.056c-0.125-0.299-0.266-0.587-0.419-0.86c-0.307-0.554-0.645-1.089-1.013-1.606
			c-0.727-1.045-1.623-1.957-2.608-2.797c-3.718-3.141-8.988-4.867-14.836-5.158c0.147-8.436-0.528-18.369-1.659-29.462
			c11.992-1.588,20.884-9.194,19.916-17.147c-0.96-7.934-11.321-13.045-23.363-11.914c-0.194-1.531-0.391-3.07-0.59-4.625
			c-1.014-7.941-2.062-16.144-3.057-24.527c11.959-1.835,20.761-9.213,19.949-16.802c-0.803-7.57-10.929-12.871-23.007-12.229
			c-0.86-9.676-1.542-19.467-1.927-29.272c12.073-0.915,21.408-7.386,21.372-14.709c-0.039-3.816-2.549-7.25-6.585-9.857
			c-3.816-2.446-9.067-4.175-14.933-4.567c0.349-9.962,1.141-19.729,2.249-29.197c5.857,0.507,11.27-0.419,15.425-2.285
			c4.477-1.991,7.51-5.035,8.054-8.805c0.53-3.774-1.294-7.591-4.959-10.852c-3.413-3.046-8.339-5.57-14.063-6.86
			c1.953-10.193,4.183-19.783,6.503-28.575c5.723,1.311,11.242,1.151,15.605-0.135c4.64-1.389,8.119-3.98,9.165-7.656
			c1.09-3.658-0.276-7.68-3.461-11.407c-2.938-3.452-7.413-6.613-12.883-8.693c1.749-5.082,3.41-9.533,4.908-13.282
			c2.142-0.577,4.154-1.222,5.997-1.976c4.991-2.032,10.031-4.378,15.083-7.271c3.062,4.789,7.105,8.314,11.633,9.918
			c1.238,0.444,2.507,0.757,3.786,0.921c1.266,0.15,2.516,0.106,3.759-0.061c2.466-0.369,4.953-1.242,6.93-2.938
			c1.992-1.669,3.584-3.681,4.402-6.062c0.84-2.365,1.118-4.932,0.829-7.51c-0.527-4.706-3.095-9.509-6.987-13.573
			c0.158-0.168,0.319-0.327,0.479-0.499c1.547,0.661,3.171,1.06,4.838,1.062c2.417,0.004,4.848-0.559,7.128-1.717
			c4.183-2.169,7.786-6.096,10.377-11.127c1.654,0.756,3.304,1.471,4.948,2.141c5.958,2.426,13.799,3.619,22.877,5.002
			c0.11,0.016,0.227,0.033,0.337,0.051c-1.261,11.829,3.488,21.971,9.983,23.194c3.408,0.682,6.91-1.183,10.135-4.596
			c2.953-3.167,5.728-7.609,7.583-12.97c8.656,2.568,17.342,6.266,25.38,11.958c-3.053,4.758-4.848,9.66-5.815,13.763
			c-0.255,1.123-0.426,2.176-0.521,3.151c-0.119,1.008-0.155,1.937-0.095,2.769c0.152,1.632,0.562,3.028,1.512,3.987
			c0.961,0.952,2.212,1.583,3.943,1.75c1.659,0.247,3.674,0.171,5.984-0.229c4.139-0.687,9.161-2.262,14.067-5.116
			c3.059,4.741,5.837,10.097,8.238,16.219c1.314,3.146,2.563,6.291,3.767,9.442c-5.285,2.238-9.59,5.467-12.366,8.922
			c-3.045,3.777-4.145,7.71-2.984,11.298c2.165,6.86,12.964,9.713,24.515,6.687c2.68,8.732,5.254,17.844,7.932,27.569
			c-11.298,3.668-18.713,12.06-16.722,19.386c1.997,7.3,12.661,10.771,24.247,8.129c2.397,8.712,4.966,17.901,7.812,27.682
			c-5.353,1.83-9.827,4.726-12.782,8.077c-3.206,3.67-4.594,7.887-3.411,11.729c2.259,7.344,13,10.547,24.447,7.528
			c2.715,8.665,5.669,17.773,8.905,27.367c-11.003,4.302-17.802,13.203-15.337,20.472c2.396,7.313,13.427,9.98,24.749,6.486
			c3.105,8.612,6.443,17.6,10.026,26.974c-5.144,2.252-9.323,5.488-11.992,9.055c-1.477,1.969-2.493,4.037-2.966,6.086
			c-0.236,1.021-0.336,2.038-0.289,3.034c0.049,1.003,0.313,2.066,0.702,3.052c1.595,3.985,5.524,6.604,10.438,7.428
			c4.486,0.767,9.777,0.015,15.003-2.169c4.57,9.702,9.41,18.073,14.506,25.121c-4.413,3.527-7.584,7.83-8.851,12.314
			c-1.418,4.903-0.491,10.042,3.121,13.695c3.6,3.657,9.079,4.899,14.184,3.527c4.677-1.201,8.913-4.552,12.167-9.146
			c7.766,4.952,15.979,7.456,24.626,7.456c1.261,0,2.505-0.07,3.741-0.183c0.732,5.623,2.979,10.597,6.856,13.755
			c4.163,3.481,10.14,4.602,15.354,2.482c5.23-2.101,8.377-6.795,8.925-11.994c0.546-4.781-1.017-9.962-4.058-14.764
			c11.49-8.013,18.97-18.109,19.401-21.273c0.205-1.508-0.669-2.306-1.479-2.531c-1.453-0.398-3.122,0.66-6.082,2.667
			c-4.582,3.106-12.248,8.313-21.722,8.313c-24.08,0-47.085-32.467-68.375-96.505c-13.842-41.636-22.9-103.968-31.658-164.246
			c-4.899-33.71-9.572-65.846-14.806-92.133c0.887,0.375,1.812,0.631,2.771,0.736c4.015,0.414,7.885-1.629,11.093-5.428
			c2.899-3.437,5.199-8.242,6.272-13.818c10.769,1.543,20.889,3.453,29.948,5.803c-0.527,2.51-0.777,4.973-0.764,7.304
			c-0.003,2.852,0.338,5.522,0.962,7.864c0.618,2.344,1.55,4.334,2.691,5.903c1.081,1.612,2.413,2.757,4.045,3.317
			c3.046,1.219,6.715-0.086,10.401-2.73c1.896-1.348,3.923-3.081,5.905-5.141c1.495-1.698,3.089-3.578,4.563-5.666
			c7.4,4.742,12.529,13.152,15.981,24.136c-5.316,1.962-9.731,4.886-12.865,7.882c-3.4,3.305-5.257,6.793-4.655,10.3
			c0.611,3.489,3.542,6.483,7.938,8.582c4.025,1.89,9.216,3.041,14.891,2.815c0.819,9.527,1.096,19.819,1.026,30.53
			c-11.869,0.53-21.279,6.74-21.539,14.487c-0.257,7.766,8.764,14.693,20.591,15.885c-0.518,10.185-1.187,20.469-1.884,30.618
			c-11.884-0.239-21.689,5.657-22.249,13.739c-0.562,8.101,8.372,15.374,20.188,16.677c-0.683,10.828-1.222,21.161-1.444,30.726
			c-11.859,0.271-21.472,6.899-21.271,15.79c0.077,4.589,2.91,8.823,7.251,11.527c4.013,2.521,9.251,3.688,14.921,3.346
			c1.579,14.409,5.23,24.585,12.293,28.489c-1.297,2.187-2.262,4.461-2.631,6.774c-0.422,2.754,0.006,5.59,1.36,8.413
			c0.673,1.406,1.658,2.62,2.835,3.829c0.592,0.598,1.241,1.173,1.94,1.716c0.708,0.549,1.465,1.068,2.163,1.461
			c1.539,0.853,2.852,1.492,4.362,2.007c1.513,0.533,2.981,0.694,4.572,0.801c0.786,0.039,1.563,0.036,2.329-0.016
			c0.748-0.067,1.452-0.216,2.158-0.385c1.401-0.343,2.732-0.84,3.959-1.474c2.34-1.404,4.328-3.266,5.704-5.571
			c2.513-4.253,3.236-9.564,2.345-15.18c9.675-1.993,19.68-5.828,29.22-10.466c2.717,4.939,6.493,8.792,10.621,10.866
			c4.546,2.319,9.54,2.568,13.527,0.239c4.017-2.303,6.208-6.694,6.46-11.75c0.225-4.617-1.162-9.777-4.021-14.646
			c14.049-9.231,23.933-17.441,24.867-18.224l7.587-6.359l-9.244,3.546c-0.351,0.133-35.47,13.492-61.935,13.492
			c-5.434,0-10.175-0.563-14.09-1.685c-10.009-2.852-7.152-49.349-4.13-98.576c4.341-70.697,9.743-158.683-17.607-181.92
			c-21.142-17.959-84.71-30.845-148.694-39.615c-1.19-3.686-3.382-7.642-6.524-11.287c6.383-6.147,13.604-12.493,21.688-18.775
			c3.602,4.105,7.783,7.078,11.705,8.699c2.226,0.917,4.37,1.395,6.317,1.373c1.953-0.015,3.774-0.434,5.264-1.478
			c2.998-2.05,4.229-6.104,4.113-10.834c-0.147-4.228-1.482-9.179-4.09-13.987c5.069-3.146,10.375-6.204,15.929-9.136
			c2.997-1.582,6.085-2.876,9.241-3.922c0.879,2.184,1.907,4.208,2.984,6.045c1.417,2.419,2.894,4.447,4.357,6.299
			c1.458,1.804,2.847,3.211,4.139,4.075c1.319,0.958,2.578,1.52,3.809,1.325c2.493-0.146,4.748-2.807,7.068-6.72
			c1.131-2,2.225-4.415,3.165-7.091c0.706-1.98,1.315-4.137,1.743-6.422c9.047,1.145,18.088,4.053,26.901,8.159
			c-1.968,5.029-2.728,9.982-2.607,14.166c0.08,2.384,0.481,4.43,1.206,6.156c0.721,1.755,1.782,3.104,3.24,3.935
			c2.881,1.798,6.881,1.261,11.175-0.761c3.759-1.829,7.779-4.938,11.196-9.119c7.863,5.625,15.312,11.846,22.146,18.157
			c-3.462,4.207-5.694,8.77-6.668,12.898c-1.1,4.706-0.545,8.816,2.004,11.447c2.548,2.631,6.686,3.294,11.406,2.346
			c4.197-0.869,8.857-3.01,13.166-6.402c8.319,9.328,14.536,17.46,17.854,22.372c-1.945,1.451-3.674,3.034-5.244,4.575
			c-2.11,1.901-3.886,3.585-5.615,4.89c-1.663,1.301-3.151,2.166-4.214,2.687c-0.543,0.269-0.923,0.433-1.237,0.616
			c-0.256,0.141-0.439,0.316-0.415,0.485c0.069,0.621,2.425,2.417,6.016,5.132c3.337,2.436,7.771,5.441,13.135,7.506
			c-1.7,5.191-4.141,10.044-6.174,14.083c-2.992,5.939-4.968,9.865-3.601,12.388c0.397,0.733,1.257,1.647,3.097,1.854l2.429,0.269
			l-0.651-2.355c-0.284-1.026,3.195-4.779,5.735-7.521c9.51-10.268,25.427-27.455,15.325-52.533
			c-2.438-6.044-73.809-112.699-130.506-112.699c-1.802,0-3.593,0.107-5.312,0.32c-27.544,3.114-56.836,15.096-84.684,28.445
			c-1.626-4.164-4.729-8.325-9.033-11.739c6.028-8.411,12.332-17.053,18.713-25.594c9.875,6.599,21.375,6.809,26.32,0.35
			c4.938-6.454,1.723-17.443-7.18-25.286c6.978-8.811,13.798-17.084,20.196-24.372c9.32,7.373,20.613,8.626,25.789,3.324
			c2.741-2.811,3.374-6.954,2.462-11.704c-0.465-2.344-1.307-4.905-2.515-7.456c-0.578-1.3-1.361-2.515-2.154-3.795
			c-0.525-0.838-1.091-1.682-1.681-2.519c5.397-4.454,9.865-7.003,13.015-7.003c3.189,0,7.532,2.503,12.691,6.793
			c-3.166,4.743-5.701,9.276-6.486,13.673c-0.968,4.707-0.379,8.849,2.346,11.691c5.152,5.391,16.513,4.22,25.863-3.124
			c6.447,7.396,13.3,15.703,20.279,24.336c-8.857,7.929-11.922,19.05-6.74,25.539c5.195,6.499,16.797,6,26.431-0.97
			c6.736,8.413,13.473,16.76,20.046,24.636c-8.753,8.041-11.519,19.412-5.757,26.004c2.992,3.434,7.712,4.835,12.789,4.222
			c4.636-0.546,9.548-2.81,13.852-6.511c9.111,9.589,17.423,17.022,24.37,20.891c-1.678,3.461-2.539,7.11-1.868,10.797
			c0.706,4.155,3.446,8.326,8.036,10.754c1.871,0.967,4.269,1.762,6.226,2.134c0.996,0.193,1.999,0.365,3.074,0.402
			c1.084,0.024,2.193-0.021,3.309-0.137c1.89-0.227,3.774-0.749,5.498-1.439c1.751-0.779,3.354-1.633,4.768-2.802
			c0.707-0.564,1.362-1.154,1.966-1.767c0.597-0.64,1.135-1.317,1.619-1.998c0.982-1.345,1.682-2.832,2.158-4.312
			c0.492-1.462,0.691-2.991,0.688-4.472c-0.002-1.481-0.215-2.916-0.658-4.339c-0.709-2.338-1.948-4.5-3.511-6.536
			C989.54,405.288,992.441,401.524,994.767,396.877z M74.057,764.13c-0.003,0-0.006,0.003-0.008,0.005l-0.008-0.785
			c0.005,0,0.01,0.003,0.016,0.003V764.13z M505.627,380.673c-11.528,5.561-29.084-6.955-39.214-27.95
			c-10.129-21-8.993-42.529,2.532-48.09c11.529-5.562,29.085,6.953,39.215,27.95C518.29,353.582,517.155,375.112,505.627,380.673z
			 M590.13,328.575c-11.528,5.561-29.085-6.952-39.215-27.951c-10.128-20.996-8.994-42.527,2.535-48.088
			c11.528-5.562,29.084,6.953,39.212,27.95C602.793,301.484,601.657,323.013,590.13,328.575z"/>
		<polygon points="190.312,1092.425 190.319,1092.42 190.319,1091.796 190.307,1091.793 		"/>
	</g>
	<path d="M-23.284,378.895c-0.028,0.172-3.15,17.386-27.079,17.386c-10.056,0-31.905-31.267-55.038-64.37
		c-33.537-47.993-71.547-102.389-99.021-102.389c-34.448,0-115.633,70.497-157.739,109.33c0.752-38.72-7.277-81.212-25.967-124.891
		C-439.893,92.957-546.352,22.458-625.905,56.497c-79.553,34.033-102.076,159.715-50.309,280.715
		c9.476,22.147,23.024,41.738,38.901,58.931c-85.203-39.668-189.09-79.884-223.295-58.957
		c-61.328,37.525-43.68,173.945-92.744,203.964c-28.934,17.702-66.648,7.853-66.648,7.853s66.47,31.515,90.668,16.707
		c37.521-22.958,54.302-140.509,84.555-181.826c20.24-27.644,147.814,37.536,230.035,83.705
		c-63.949-0.591-134.553-1.874-189.846,18.108c-81.631,28.571-107.03,232.029-108.237,243.39
		c-1.949,18.357-25.43,29.036-33.552,35.365c-8.122,6.329,53.488-16.826,59.067-35.025c9.664-31.516,5.602-189.025,152.806-209.763
		c38.447-5.417,69.375-4.682,94.284-0.516c-5.928,10.07-10.978,22.657-14.585,38.637c-9.678,41.815-19.778,102.325-29.545,160.843
		c-9.441,56.574-19.206,115.077-28.549,156.435c-7.413,32.031-23.494,48.271-47.795,48.271c-13.709,0-26.82-4.962-35.496-8.245
		c-4.275-1.615-7.099-2.683-8.776-2.683c-0.325,0-0.613,0.036-0.882,0.109c-1.018,0.285-1.625,1.226-1.481,2.29
		c0.84,6.152,43.063,37.261,77.285,37.261c22.505-0.003,38.162-12.276,46.545-36.512c10.292-31.343,20.752-67.039,30.867-101.557
		c16.833-57.445,34.24-116.844,51.352-157.812c9.168-23.366,22.918-37.508,38.117-46.442c-0.442,4.523-0.931,9.191-1.437,14.005
		c-3.39,32.353-7.235,69.019-2.032,105.933c5.354,37.994,15.842,75.636,24.271,105.876c9.48,34.026,17.671,63.415,9.862,66.111
		c-7.206,2.489-15.138,3.754-23.576,3.754c-19.174,0-34.767-6.562-34.921-6.626l-5.294-2.263l3.283,4.731
		c0.614,0.883,15.638,21.701,65.031,21.701c4.195,0,8.581-0.155,13.032-0.461c4.127-0.279,7.496-1.982,10.021-5.058
		c10.078-12.269,5.791-45.83,0.366-88.32c-4.106-32.139-8.759-68.568-8.383-104.121c0.622-58.472,17.159-111.745,26.75-135.758
		c2.145-0.581,4.158-1.228,6.001-1.977c17.878-7.282,36.333-18.466,53.969-45.104c4.673,2.773,9.323,4.955,13.908,6.824
		c23.501,9.57,81.084-0.045,104.587,59.872c23.501,56.268,28.078,113.514,77.133,238.981
		c49.053,125.465,118.645,37.649,113.219,36.145c-5.427-1.508-49.099,58.536-97.375-86.663
		c-23.344-70.208-33.49-201.513-49.797-271.979c-0.663-2.92-1.385-5.697-2.153-8.36c34.854,3.014,66.826,8.805,84.899,19.365
		c55.32,32.327-7.487,249.29,30.882,266.751c38.371,17.461,109.168-41.9,109.168-41.9s-50.61,19.427-77.13,11.865
		c-26.517-7.562,24.209-241.459-22.367-281.029c-22.825-19.386-97.09-32.906-166.908-41.655
		c16.042-17.577,40.039-38.866,72.846-56.182c63.537-33.532,138.846,60.643,150.586,78.753
		c14.683,22.659-16.376,51.189-6.256,52.317c-1.805-6.526,34.893-25.768,21.132-59.92c-2.797-6.942-77.983-118.361-134.19-111.434
		c-37.182,4.205-77.02,24.396-113.533,42.893c35.258-51.108,94.797-131.949,112.597-131.949c12.113,0,40.695,35.771,68.337,70.367
		c30.659,38.37,62.361,78.045,79.476,79.816c14.247,1.475,25.346-4.779,31.924-17.921c4.399-8.791,5.205-17.453,5.237-17.816
		L-23.284,378.895z M-514.724,380.91c-11.537,5.565-29.106-6.958-39.242-27.97c-10.137-21.013-9-42.56,2.536-48.124
		c11.535-5.565,29.105,6.958,39.241,27.971C-502.055,353.798-503.189,375.344-514.724,380.91z M-430.161,328.776
		c-11.537,5.565-29.106-6.958-39.242-27.971c-10.134-21.013-9-42.559,2.536-48.125c11.536-5.564,29.105,6.958,39.239,27.97
		C-417.489,301.665-418.625,323.21-430.161,328.776z"/>
</g>
<g id="Layer_1">
</g>
</svg>
